HIERARCHY
ROOT joint_Root
{
	OFFSET 0.0 0.0 0.0
	CHANNELS 6 Xposition Yposition Zposition Zrotation Xrotation Yrotation 
	JOINT Hips
	{
		OFFSET -17.1583 93.1646 452.98
		CHANNELS 6 Xposition Yposition Zposition Zrotation Xrotation Yrotation 
		JOINT Spine
		{
			OFFSET 15.7357 0.0 0.0
			CHANNELS 6 Xposition Yposition Zposition Zrotation Xrotation Yrotation 
			JOINT Chest
			{
				OFFSET 8.98455 -0.406207 0.0
				CHANNELS 6 Xposition Yposition Zposition Zrotation Xrotation Yrotation 
				JOINT Neck
				{
					OFFSET 16.3773 0.0 0.0
					CHANNELS 6 Xposition Yposition Zposition Zrotation Xrotation Yrotation 
					JOINT Head
					{
						OFFSET 6.45672 0.0 0.0
						CHANNELS 6 Xposition Yposition Zposition Zrotation Xrotation Yrotation 
						End Site
						{
							OFFSET 0.0 0.0 0.0
						}
					}
				}
				JOINT Shoulder_L
				{
					OFFSET 12.9942 -0.242716 4.98039
					CHANNELS 6 Xposition Yposition Zposition Zrotation Xrotation Yrotation 
					JOINT UpperArm_L
					{
						OFFSET 5.34809 0.0 0.0
						CHANNELS 6 Xposition Yposition Zposition Zrotation Xrotation Yrotation 
						JOINT LowerArm_L
						{
							OFFSET 24.3286 1.87007e-05 0.0
							CHANNELS 6 Xposition Yposition Zposition Zrotation Xrotation Yrotation 
							JOINT Hand_L
							{
								OFFSET 22.2916 0.0 0.0
								CHANNELS 6 Xposition Yposition Zposition Zrotation Xrotation Yrotation 
								End Site
								{
									OFFSET 0.0 0.0 0.0
								}
							}
						}
					}
				}
				JOINT Shoulder_R
				{
					OFFSET 12.9945 -0.242716 -4.98039
					CHANNELS 6 Xposition Yposition Zposition Zrotation Xrotation Yrotation 
					JOINT UpperArm_R
					{
						OFFSET -5.34813 0.0 0.0
						CHANNELS 6 Xposition Yposition Zposition Zrotation Xrotation Yrotation 
						JOINT LowerArm_R
						{
							OFFSET -24.3289 0.000322201 0.0
							CHANNELS 6 Xposition Yposition Zposition Zrotation Xrotation Yrotation 
							JOINT Hand_R
							{
								OFFSET -22.2915 -0.000108084 0.0
								CHANNELS 6 Xposition Yposition Zposition Zrotation Xrotation Yrotation 
								End Site
								{
									OFFSET 0.0 0.0 0.0
								}
							}
						}
					}
				}
			}
		}
		JOINT UpperLeg_L
		{
			OFFSET -2.19248 -6.46944 0.0
			CHANNELS 6 Xposition Yposition Zposition Zrotation Xrotation Yrotation 
			JOINT LowerLeg_L
			{
				OFFSET 39.0811 0.0 -1.23785e-05
				CHANNELS 6 Xposition Yposition Zposition Zrotation Xrotation Yrotation 
				JOINT Foot_L
				{
					OFFSET 40.9854 0.0 -1.26872e-05
					CHANNELS 6 Xposition Yposition Zposition Zrotation Xrotation Yrotation 
					JOINT Toes_L
					{
						OFFSET 11.7543 0.0 0.0
						CHANNELS 6 Xposition Yposition Zposition Zrotation Xrotation Yrotation 
						End Site
						{
							OFFSET 0.0 0.0 0.0
						}
					}
				}
			}
		}
		JOINT UpperLeg_R
		{
			OFFSET -2.19251 6.46944 0.0
			CHANNELS 6 Xposition Yposition Zposition Zrotation Xrotation Yrotation 
			JOINT LowerLeg_R
			{
				OFFSET -39.0811 -0.00228153 -0.0401928
				CHANNELS 6 Xposition Yposition Zposition Zrotation Xrotation Yrotation 
				JOINT Foot_R
				{
					OFFSET -40.9854 0.0 0.0
					CHANNELS 6 Xposition Yposition Zposition Zrotation Xrotation Yrotation 
					JOINT Toes_R
					{
						OFFSET -11.7543 0.0 0.0
						CHANNELS 6 Xposition Yposition Zposition Zrotation Xrotation Yrotation 
						End Site
						{
							OFFSET 0.0 0.0 0.0
						}
					}
				}
			}
		}
	}
}
MOTION
Frames:	5
Frame Time:	0.0333333
0.000000 0.000000 0.000000 0.000000 0.000000 -0.000000 -4.504710 91.809500 -0.511907 85.328500 6.047380 6.239160 15.735700 0.000005 -0.000001 74.616700 86.785700 -71.666300 8.984550 -0.406207 -0.000000 -1.511200 -1.943610 5.873940 16.377300 -0.000001 -0.000001 11.242800 -0.336861 -11.543600 6.456720 -0.000001 -0.000000 5.886080 -5.104190 -23.201900 12.994200 -0.242716 4.980390 -92.910700 7.867450 -69.622500 5.348090 -0.000007 -0.000001 -73.276300 8.557430 -6.267480 24.328600 0.000019 0.000005 44.964800 -43.881600 -124.762000 22.291600 -0.000001 0.000005 45.903100 4.981560 7.708920 12.994500 -0.242716 -4.980390 88.806100 3.503990 -71.171500 -5.348130 -0.000001 -0.000004 -70.905900 29.156300 -3.569680 -24.328900 0.000322 -0.000009 2.216760 7.580870 -16.359800 -22.291500 -0.000108 -0.000004 1.567790 5.223100 2.133240 -2.192480 -6.469440 -0.000000 -171.959000 6.821510 -2.917810 39.081100 -0.000007 -0.000012 0.313636 -0.589318 28.022600 40.985400 -0.000006 -0.000013 -0.230463 12.516200 -75.867300 11.754300 -0.000000 0.000003 -0.000022 0.168001 -9.762760 -2.192510 6.469440 -0.000001 -170.551000 9.523570 -175.561000 -39.081100 -0.002282 -0.040193 0.145793 -0.489136 16.238800 -40.985400 0.000008 0.000006 5.642860 -2.763390 -71.543800 -11.754300 -0.000006 -0.000006 -0.011017 0.278752 -5.246280
0.000000 0.000000 0.000000 0.000000 0.000000 -0.000000 -4.457690 91.805300 -0.532087 85.316900 6.045560 6.246410 15.735700 0.000005 -0.000001 74.529000 86.776300 -71.567200 8.984550 -0.406207 -0.000000 -1.494920 -1.958660 5.896870 16.377300 -0.000001 -0.000001 11.313100 -0.324263 -11.512700 6.456720 -0.000001 -0.000000 5.824440 -4.999690 -23.193000 12.994200 -0.242716 4.980390 -92.918600 7.868680 -69.574900 5.348090 -0.000007 -0.000001 -73.265100 8.463110 -6.265210 24.328600 0.000019 0.000005 44.800300 -43.790000 -124.871000 22.291600 -0.000001 0.000005 45.790700 4.978720 7.768430 12.994500 -0.242716 -4.980390 88.803500 3.510130 -71.163400 -5.348130 -0.000001 -0.000004 -70.880000 29.083000 -3.569740 -24.328900 0.000322 -0.000009 2.217150 7.600430 -16.322900 -22.291500 -0.000108 -0.000004 1.539680 5.221640 2.170650 -2.192480 -6.469440 -0.000000 -171.993000 6.846780 -2.933100 39.081100 -0.000007 -0.000012 0.318044 -0.596781 28.055300 40.985400 -0.000006 -0.000013 -0.074845 12.478700 -75.894100 11.754300 -0.000000 0.000003 -0.000034 0.168202 -9.754590 -2.192510 6.469440 -0.000001 -170.558000 9.458020 -175.638000 -39.081100 -0.002282 -0.040193 0.148204 -0.493613 16.357200 -40.985400 0.000008 0.000006 5.599250 -2.825010 -71.567600 -11.754300 -0.000006 -0.000006 -0.011454 0.281869 -5.118700
0.000000 0.000000 0.000000 0.000000 0.000000 -0.000000 -4.413680 91.808200 -0.533199 85.308500 6.039950 6.308270 15.735700 0.000005 -0.000001 74.780600 86.755200 -71.809600 8.984550 -0.406207 -0.000000 -1.446900 -1.941940 5.916290 16.377300 -0.000001 -0.000001 11.428300 -0.296829 -11.510500 6.456720 -0.000001 -0.000000 5.796540 -4.960310 -23.052900 12.994200 -0.242716 4.980390 -92.918500 7.873180 -69.585500 5.348090 -0.000007 -0.000001 -73.232000 8.351980 -6.237190 24.328600 0.000019 0.000005 44.382700 -43.598600 -125.169000 22.291600 -0.000001 0.000005 45.540000 4.987040 7.593090 12.994500 -0.242716 -4.980390 88.809900 3.484460 -71.130100 -5.348130 -0.000001 -0.000004 -70.864600 29.153700 -3.599750 -24.328900 0.000322 -0.000009 2.220850 7.634800 -16.279400 -22.291500 -0.000108 -0.000004 1.469820 5.221540 2.173430 -2.192480 -6.469440 -0.000000 -172.023000 6.864800 -2.890360 39.081100 -0.000007 -0.000012 0.317163 -0.594248 28.090400 40.985400 -0.000006 -0.000013 -0.167521 12.457200 -75.890200 11.754300 -0.000000 0.000003 0.000021 0.167268 -9.792550 -2.192510 6.469440 -0.000001 -170.593000 9.455380 -175.567000 -39.081100 -0.002282 -0.040193 0.147233 -0.490241 16.359200 -40.985400 0.000008 0.000006 5.564640 -2.826020 -71.585400 -11.754300 -0.000006 -0.000006 -0.011274 0.280593 -5.170920
0.000000 0.000000 0.000000 0.000000 0.000000 -0.000000 -4.372290 91.808800 -0.544849 85.315200 6.025160 6.284860 15.735700 0.000005 -0.000001 74.789800 86.758800 -71.827900 8.984550 -0.406207 -0.000000 -1.454010 -1.938460 5.897900 16.377300 -0.000001 -0.000001 11.525900 -0.274603 -11.468500 6.456720 -0.000001 -0.000000 5.733920 -4.874310 -22.907800 12.994200 -0.242716 4.980390 -92.931400 7.884520 -69.529900 5.348090 -0.000007 -0.000001 -73.159800 8.241090 -6.276620 24.328600 0.000019 0.000005 44.342900 -43.511600 -125.164000 22.291600 -0.000001 0.000005 45.576200 4.982430 7.690740 12.994500 -0.242716 -4.980390 88.800600 3.505300 -71.097500 -5.348130 -0.000001 -0.000004 -70.847500 29.153300 -3.625330 -24.328900 0.000322 -0.000009 2.224600 7.666050 -16.242900 -22.291500 -0.000108 -0.000004 1.451260 5.220220 2.206990 -2.192480 -6.469440 -0.000000 -172.044000 6.849820 -2.904640 39.081100 -0.000007 -0.000012 0.313784 -0.588057 28.084800 40.985400 -0.000006 -0.000013 -0.127169 12.490500 -75.872700 11.754300 -0.000000 0.000003 0.000054 0.166705 -9.815400 -2.192510 6.469440 -0.000001 -170.612000 9.418890 -175.618000 -39.081100 -0.002282 -0.040193 0.148856 -0.494371 16.403100 -40.985400 0.000008 0.000006 5.538410 -2.845900 -71.580000 -11.754300 -0.000006 -0.000006 -0.011039 0.278913 -5.239690
0.000000 0.000000 0.000000 0.000000 0.000000 -0.000000 -4.331680 91.806200 -0.539819 85.313200 6.028800 6.346400 15.735700 0.000005 -0.000001 74.956900 86.735400 -72.002900 8.984550 -0.406207 -0.000000 -1.404120 -1.930470 5.882980 16.377300 -0.000001 -0.000001 11.633600 -0.299855 -11.426000 6.456720 -0.000001 -0.000000 5.645630 -4.812890 -22.789800 12.994200 -0.242716 4.980390 -92.939900 7.895350 -69.500700 5.348090 -0.000007 -0.000001 -73.056100 8.080570 -6.274830 24.328600 0.000019 0.000005 44.284300 -43.386500 -125.157000 22.291600 -0.000001 0.000005 45.664100 4.987000 7.594010 12.994500 -0.242716 -4.980390 88.789000 3.536480 -71.083900 -5.348130 -0.000001 -0.000004 -70.849100 29.101600 -3.598750 -24.328900 0.000322 -0.000009 2.217200 7.621740 -16.280300 -22.291500 -0.000108 -0.000004 1.521450 5.219280 2.231220 -2.192480 -6.469440 -0.000000 -172.099000 6.852780 -2.856340 39.081100 -0.000007 -0.000012 0.320218 -0.599125 28.124100 40.985400 -0.000006 -0.000013 -0.044487 12.426500 -75.940100 11.754300 -0.000000 0.000003 -0.000077 0.168913 -9.725730 -2.192510 6.469440 -0.000001 -170.653000 9.389440 -175.584000 -39.081100 -0.002282 -0.040193 0.149716 -0.494880 16.478800 -40.985400 0.000008 0.000006 5.504040 -2.824610 -71.641600 -11.754300 -0.000006 -0.000006 -0.011277 0.280614 -5.170070
